<svg xmlns="http://www.w3.org/2000/svg" viewBox="0 0 145.95 147.68"><defs><style>.cls-1{fill:#fbd801;}.cls-2{fill:#231f20;}</style></defs><g id="Layer_2" data-name="Layer 2"><g id="Layer_1-2" data-name="Layer 1"><path class="cls-1" d="M72.63,147.68C43.09,147.56,17,129.83,5.41,101.93.44,90-.86,77.56.51,64.8A73.18,73.18,0,0,1,50.39,3.63a72.18,72.18,0,0,1,79.46,24,72.17,72.17,0,0,1,15.48,36.08c4.39,33.68-14.69,68.65-49.16,80.12A76.88,76.88,0,0,1,72.63,147.68Zm1.57-33.46h8.88c3,0,5.91,0,8.87,0,5.36,0,10.71,0,16.07-.22,7.24-.36,14.72-6.68,15.46-15.38a169.18,169.18,0,0,0,.4-17c0-1.36,0-2.72-.18-4.07-.17-1.69-.24-1.73-1.88-1.73q-10.8,0-21.59,0c-1.65,0-1.68,0-1.7,1.79,0,2,0,4,0,6a9.47,9.47,0,0,1-1,4.41,6.67,6.67,0,0,1-6.27,3.63A6.8,6.8,0,0,1,86,86.78a13.24,13.24,0,0,1-.41-3.32c0-4.79,0-9.59,0-14.39,0-2.7-.28-2.54,2.63-2.55l33.58-.1c1.9,0,1.94,0,2-1.74q.06-9.6.06-19.19c0-1.64,0-1.64-1.78-1.69h-1.44L88,43.72c-2.18,0-2.21,0-2.32-2.25-.08-1.76-.06-3.52-.11-5.27-.06-2.25-.08-2.35-2.29-2.42-7-.23-13.91,0-20.86.08-1.21,0-1.76.49-1.74,1.71q.06,2.88,0,5.76c0,2-.26,2.23-2.17,2.37-1.67.11-3.36.09-5,.08-1,0-1.44.28-1.44,1.36q0,10-.08,19.91c0,1,.37,1.38,1.39,1.38,1.92,0,3.83.17,5.75.19,1.06,0,1.57.32,1.57,1.51,0,5.36.22,10.71-.12,16.06a9.12,9.12,0,0,1-1.3,4.56,6.25,6.25,0,0,1-6.88,2.64c-2.78-.68-4-2.21-4.37-5.22A118.5,118.5,0,0,1,47.55,74c-.1-9.35.26-18.7,0-28-.06-2-.07-2-1.91-2.15a176.35,176.35,0,0,0-21.81,0c-1.66.11-1.7.12-1.7,1.83,0,16.94-.6,33.88,0,50.83a18.75,18.75,0,0,0,.68,4.49c1.94,6.72,5.93,11.42,13.07,12.82a28,28,0,0,0,5.25.49C52.14,114.24,63.17,114.22,74.2,114.22Z"/><path class="cls-2" d="M74.2,114.22c-11,0-22.06,0-33.09,0a28,28,0,0,1-5.25-.49c-7.14-1.4-11.13-6.1-13.07-12.82a18.75,18.75,0,0,1-.68-4.49c-.58-17,.06-33.89,0-50.83,0-1.71,0-1.72,1.7-1.83a176.35,176.35,0,0,1,21.81,0c1.84.11,1.85.13,1.91,2.15.26,9.35-.1,18.7,0,28.05A118.5,118.5,0,0,0,48,86.17c.33,3,1.59,4.54,4.37,5.22a6.25,6.25,0,0,0,6.88-2.64,9.12,9.12,0,0,0,1.3-4.56c.34-5.35.13-10.7.12-16.06,0-1.19-.51-1.49-1.57-1.51-1.92,0-3.83-.18-5.75-.19-1,0-1.4-.33-1.39-1.38q.09-10,.08-19.91c0-1.08.47-1.37,1.44-1.36,1.68,0,3.37,0,5-.08,1.91-.14,2.14-.42,2.17-2.37s0-3.84,0-5.76c0-1.22.53-1.7,1.74-1.71,7,0,13.9-.31,20.86-.08,2.21.07,2.23.17,2.29,2.42,0,1.75,0,3.51.11,5.27.11,2.23.14,2.24,2.32,2.25l32.62.08H122c1.74.05,1.78.05,1.78,1.69q0,9.6-.06,19.19c0,1.71,0,1.74-2,1.74l-33.58.1c-2.91,0-2.62-.15-2.63,2.55,0,4.8,0,9.6,0,14.39A13.24,13.24,0,0,0,86,86.78a6.8,6.8,0,0,0,5.34,4.9,6.67,6.67,0,0,0,6.27-3.63,9.47,9.47,0,0,0,1-4.41c0-2,0-4,0-6,0-1.74,0-1.78,1.7-1.79q10.8-.06,21.59,0c1.64,0,1.71,0,1.88,1.73.14,1.35.16,2.71.18,4.07a169.18,169.18,0,0,1-.4,17c-.74,8.7-8.22,15-15.46,15.38-5.36.26-10.71.17-16.07.22-3,0-5.91,0-8.87,0Z"/></g></g></svg>