<svg xmlns="http://www.w3.org/2000/svg" viewBox="0 0 703.88 147.68"><defs><style>.cls-1{fill:#fbd801;}.cls-2{fill:#fff;}.cls-3{fill:#231f20;}</style></defs><g id="Layer_2" data-name="Layer 2"><g id="Layer_1-2" data-name="Layer 1"><path class="cls-1" d="M72.63,147.68C43.09,147.56,17,129.83,5.41,101.93.44,90-.86,77.56.51,64.8A73.18,73.18,0,0,1,50.39,3.63a72.18,72.18,0,0,1,79.46,24,72.17,72.17,0,0,1,15.48,36.08c4.39,33.68-14.69,68.65-49.16,80.12A76.88,76.88,0,0,1,72.63,147.68Zm1.57-33.46h8.88c3,0,5.91,0,8.87,0,5.36,0,10.71,0,16.07-.22,7.24-.36,14.72-6.68,15.46-15.38a169.18,169.18,0,0,0,.4-17c0-1.36,0-2.72-.18-4.07-.17-1.69-.24-1.73-1.88-1.73q-10.8,0-21.59,0c-1.65,0-1.68,0-1.7,1.79,0,2,0,4,0,6a9.47,9.47,0,0,1-1,4.41,6.67,6.67,0,0,1-6.27,3.63A6.8,6.8,0,0,1,86,86.78a13.24,13.24,0,0,1-.41-3.32c0-4.79,0-9.59,0-14.39,0-2.7-.28-2.54,2.63-2.55l33.58-.1c1.9,0,1.94,0,2-1.74q.06-9.6.06-19.19c0-1.64,0-1.64-1.78-1.69h-1.44L88,43.72c-2.18,0-2.21,0-2.32-2.25-.08-1.76-.06-3.52-.11-5.27-.06-2.25-.08-2.35-2.29-2.42-7-.23-13.91,0-20.86.08-1.21,0-1.76.49-1.74,1.71q.06,2.88,0,5.76c0,2-.26,2.23-2.17,2.37-1.67.11-3.36.09-5,.08-1,0-1.44.28-1.44,1.36q0,10-.08,19.91c0,1,.37,1.38,1.39,1.38,1.92,0,3.83.17,5.75.19,1.06,0,1.57.32,1.57,1.51,0,5.36.22,10.71-.12,16.06a9.12,9.12,0,0,1-1.3,4.56,6.25,6.25,0,0,1-6.88,2.64c-2.78-.68-4-2.21-4.37-5.22A118.5,118.5,0,0,1,47.55,74c-.1-9.35.26-18.7,0-28-.06-2-.07-2-1.91-2.15a176.35,176.35,0,0,0-21.81,0c-1.66.11-1.7.12-1.7,1.83,0,16.94-.6,33.88,0,50.83a18.75,18.75,0,0,0,.68,4.49c1.94,6.72,5.93,11.42,13.07,12.82a28,28,0,0,0,5.25.49C52.14,114.24,63.17,114.22,74.2,114.22Z"/><path class="cls-2" d="M382.52,64.67h10.31c.83,0,1.55.08,1.65-1.12.46-5.66.94-11.31.06-17-.47-3.09-1.75-5.6-4.71-7-2.22-1.08-3.15-3-3.53-5.37a2,2,0,0,1,1.43-2.57,41.6,41.6,0,0,1,10.6-2.86,62.91,62.91,0,0,1,25.19,1.14,19.25,19.25,0,0,1,3,1c4,1.74,3.29.94,2.89,5a7.73,7.73,0,0,1-3.08,5.72c-2.83,2.13-3.46,5.43-4,8.69a44.62,44.62,0,0,0-.51,7.4c.11,10.71-.7,21.41-.39,32.12A43.94,43.94,0,0,0,422.71,100a9,9,0,0,0,4.34,6,6.68,6.68,0,0,1,1,.68,5.26,5.26,0,0,1,1.74,4.29c0,1.46-1.45,1.8-2.46,2.33a32.36,32.36,0,0,1-10.5,3.14,76.53,76.53,0,0,1-26.23-.44c-1.54-.29-2.63-.69-3-2.48-.39-2-.65-3.83,1.07-5.29a25.2,25.2,0,0,1,2.59-1.71,3.54,3.54,0,0,0,1.72-3,180.67,180.67,0,0,0,.4-21.32c-.17-4,.09-3.31-3.44-3.4a160.45,160.45,0,0,0-17,1c-1.14.09-1.75.48-1.88,1.67-.61,5.71-1.68,11.38-1.55,17.16a18.29,18.29,0,0,0,.25,2.85c.37,2,1.12,3.33,3.46,3.55s4.27,1.22,4.82,3.66-1,3.89-2.63,5.29a10.52,10.52,0,0,1-5.61,2.46,88.61,88.61,0,0,1-27.68-.19,19.59,19.59,0,0,1-5.23-1.67,4.69,4.69,0,0,1-2.7-3.7,3.66,3.66,0,0,1,1.79-4.09,10.36,10.36,0,0,1,2.15-1c3.35-1,4.85-3.32,4.91-6.79.1-5.67.49-11.34.37-17q-.37-18-.8-35.95c0-.32,0-.64,0-1-.21-3.57-.34-3.72-3.84-4.66-1.31-.36-2.59-.68-3.22-2.17a4.41,4.41,0,0,1,.8-5.3,10.61,10.61,0,0,1,3.72-2.55,30.69,30.69,0,0,1,8.08-2.12,60.08,60.08,0,0,1,23.77,1.18,16,16,0,0,1,5,2.18A2.45,2.45,0,0,1,378.2,34c-.09,1.36,0,2.72-.16,4.07a3.52,3.52,0,0,1-2.89,3.38c-2.57.53-3.6,2.43-4.16,4.73a40.42,40.42,0,0,0-.78,9c0,2.39.11,4.79.23,7.19.09,2,.12,2,2,2,3.35,0,6.71,0,10.07,0Z"/><path class="cls-2" d="M579.52,25.55c11.67.08,21.61,4.43,29.25,13.11,12.63,14.37,16.7,31,11.17,49.49-3.86,12.89-12.77,21.47-25,26.74a49.21,49.21,0,0,1-19.5,4.29A39.21,39.21,0,0,1,548,108.56c-9.54-8.75-14.66-19.74-15.89-32.58a43.76,43.76,0,0,1,7.55-30c5.59-8.08,13.3-13.44,22.37-17A47.57,47.57,0,0,1,579.52,25.55Zm14,58.52a56.27,56.27,0,0,0-2-15c-1.76-6.51-4.26-12.71-8.59-18a15.3,15.3,0,0,0-7.17-5.39c-4.84-1.51-9.11-.17-11,5.07a26.64,26.64,0,0,0-1.43,7,65.66,65.66,0,0,0,3.22,24.53,42.7,42.7,0,0,0,6.73,13.66,15.7,15.7,0,0,0,5,4.42,8.76,8.76,0,0,0,9.11-.3,11.24,11.24,0,0,0,4.68-6.44A28.27,28.27,0,0,0,593.53,84.07Z"/><path class="cls-2" d="M522.74,72.35c-.14,13.45-4,24.08-12.58,32.75-6.66,6.71-14.85,10.72-24,12.83-13,3-25.11.84-35.69-7.6-9.29-7.42-14.8-17.24-17.18-28.81A46,46,0,0,1,436,53.36c4.64-10.68,12.65-18.06,23.1-22.9a49.38,49.38,0,0,1,20.33-4.9A38.16,38.16,0,0,1,507.34,36.7,50.08,50.08,0,0,1,522.74,72.35Zm-28.82,11a54.42,54.42,0,0,0-2.71-16.9,45.08,45.08,0,0,0-7.57-15.1c-2-2.45-4.21-4.62-7.28-5.65-4.74-1.58-9.26-.38-11.14,5.09a27.66,27.66,0,0,0-1.29,5.82c-.77,6.51,0,12.9,1.39,19.25A55.62,55.62,0,0,0,471.75,93a20.77,20.77,0,0,0,6,6.74A9.05,9.05,0,0,0,489.24,99a13.34,13.34,0,0,0,3.54-6.14A29.79,29.79,0,0,0,493.92,83.35Z"/><path class="cls-2" d="M201.65,119.13c-7.23-.16-14.24-1.15-20.75-4.36-5.31-2.61-9.59-6.32-12-11.87-2.25-5.19-2.24-10.55-1.12-16,.19-.94.44-1.86.71-2.78.47-1.64,1-2.07,2.7-2.12a5,5,0,0,1,3.12,1A18.22,18.22,0,0,1,178,86.78c1.81,2.33,3.53,4.74,5.41,7a23.86,23.86,0,0,0,19.23,9.09h.48c2.83-.24,5.47-1,6.61-3.9a7.89,7.89,0,0,0-1.52-8.29,14.15,14.15,0,0,0-5.29-3.63A97.2,97.2,0,0,0,193,83.63c-2.43-.79-4.85-1.6-7.24-2.49C177.24,78,172.3,71.62,170.24,63c-2.26-9.47-.44-18.08,6.38-25.32,3.81-4.06,8.75-6.05,14-7.24,7.73-1.74,15.54-1.66,23.36-.78a102.29,102.29,0,0,1,13.89,2.47,7.46,7.46,0,0,0,4.23-.4c2.91-.95,3.72-.7,5.45,1.81,2,2.94,3,6.33,3.82,9.75a21.66,21.66,0,0,1,.55,7.13c-.35,4-2.68,6.08-6.62,6a9.41,9.41,0,0,1-7.43-3.25c-.87-1-1.91-1.93-2.84-2.92a24.57,24.57,0,0,0-14.91-7.46c-5.57-.81-6.66.72-7.94,5.83a5.22,5.22,0,0,0,2.21,5.69,17.64,17.64,0,0,0,5.37,2.58c4.56,1.43,9.17,2.75,13.7,4.28a30.85,30.85,0,0,1,13.15,8c8.27,9,9.56,20.81,3.49,31.44A32.89,32.89,0,0,1,223.34,115,60.42,60.42,0,0,1,201.65,119.13Z"/><path class="cls-2" d="M295.43,26.44a55.82,55.82,0,0,1,24.56,5,33.71,33.71,0,0,1,4.78,2.73,3.16,3.16,0,0,0,3.09.67,2.63,2.63,0,0,1,3.27,1.24A19.93,19.93,0,0,1,334.2,42c.8,2.84,1.91,5.58,2.43,8.51a20.07,20.07,0,0,1-2.94,14.21,5.71,5.71,0,0,1-4.32,2.67c-5.77,1-10.4-.94-13.79-5.66a58.27,58.27,0,0,1-3.2-5.33,25,25,0,0,0-11.25-10.73c-6.72-3.1-13.37-1.17-17.24,5.14a24.76,24.76,0,0,0-3.42,15.4c.84,10,5.5,18.05,13.06,24.48,5.33,4.55,11.33,5.93,18.09,3.58,3-1.06,5.88-2.46,8.81-3.72A39.86,39.86,0,0,1,330,87.43a5.11,5.11,0,0,1,6,5.32,10.5,10.5,0,0,1-.8,3.48,80.62,80.62,0,0,1-4.31,8.81,4.09,4.09,0,0,1-1.08,1.26c-7.82,6.53-16.55,11.23-26.76,12.5-14.8,1.86-27.86-2.28-38.9-12.3a43.88,43.88,0,0,1-14.68-27.79c-1.41-11.79,0-23.14,6.79-33.31C261.66,37.21,269.36,32,278.59,29A51.57,51.57,0,0,1,295.43,26.44Z"/><path class="cls-2" d="M665.62,117.44c-4.77-.18-12,.22-19.31.24a32.77,32.77,0,0,1-11.3-1.83,11.52,11.52,0,0,1-4.47-2.7c-2.19-2.26-1.78-4.55,1.21-5.48,4.34-1.34,6.21-4.47,6.84-8.63a38.24,38.24,0,0,0,.5-6c-.05-10,0-20-.08-30,0-4-.22-8-.4-12a20.25,20.25,0,0,0-.51-3.55,8,8,0,0,0-5.77-6.42,18.32,18.32,0,0,1-1.81-.61,4.81,4.81,0,0,1-2.92-5.22c.11-.75.64-1.07,1.14-1.44a21.1,21.1,0,0,1,7.11-3.35,68,68,0,0,1,34.82-.18,20,20,0,0,1,3.78,1.48c.89.43,1,1,.76,1.94A3.89,3.89,0,0,1,672.3,37c-4.22.88-5.39,3.78-5.42,7.58,0,3.52-.14,7-.1,10.55q.18,14.62.45,29.25c.1,5.84-.08,11.67-.23,17.5,0,1.81,0,1.85,1.81,1.9,5.28.16,10.55.21,15.76-.89a17.5,17.5,0,0,0,4.29-1.45A8.1,8.1,0,0,0,693,97c.48-1.27.91-2.55,1.38-3.83a12.38,12.38,0,0,1,3.78-5.44,1.66,1.66,0,0,1,2.15-.19,6.68,6.68,0,0,1,3.1,4.37,19.57,19.57,0,0,1,.06,8.31,42.09,42.09,0,0,1-5.65,14.91A3.45,3.45,0,0,1,695,116.9c-3.43.36-6.86.46-10.3.52C679.16,117.51,673.64,117.44,665.62,117.44Z"/><path class="cls-3" d="M74.2,114.22c-11,0-22.06,0-33.09,0a28,28,0,0,1-5.25-.49c-7.14-1.4-11.13-6.1-13.07-12.82a18.75,18.75,0,0,1-.68-4.49c-.58-17,.06-33.89,0-50.83,0-1.71,0-1.72,1.7-1.83a176.35,176.35,0,0,1,21.81,0c1.84.11,1.85.13,1.91,2.15.26,9.35-.1,18.7,0,28.05A118.5,118.5,0,0,0,48,86.17c.33,3,1.59,4.54,4.37,5.22a6.25,6.25,0,0,0,6.88-2.64,9.12,9.12,0,0,0,1.3-4.56c.34-5.35.13-10.7.12-16.06,0-1.19-.51-1.49-1.57-1.51-1.92,0-3.83-.18-5.75-.19-1,0-1.4-.33-1.39-1.38q.09-10,.08-19.91c0-1.08.47-1.37,1.44-1.36,1.68,0,3.37,0,5-.08,1.91-.14,2.14-.42,2.17-2.37s0-3.84,0-5.76c0-1.22.53-1.7,1.74-1.71,7,0,13.9-.31,20.86-.08,2.21.07,2.23.17,2.29,2.42,0,1.75,0,3.51.11,5.27.11,2.23.14,2.24,2.32,2.25l32.62.08H122c1.74.05,1.78.05,1.78,1.69q0,9.6-.06,19.19c0,1.71,0,1.74-2,1.74l-33.58.1c-2.91,0-2.62-.15-2.63,2.55,0,4.8,0,9.6,0,14.39A13.24,13.24,0,0,0,86,86.78a6.8,6.8,0,0,0,5.34,4.9,6.67,6.67,0,0,0,6.27-3.63,9.47,9.47,0,0,0,1-4.41c0-2,0-4,0-6,0-1.74,0-1.78,1.7-1.79q10.8-.06,21.59,0c1.64,0,1.71,0,1.88,1.73.14,1.35.16,2.71.18,4.07a169.18,169.18,0,0,1-.4,17c-.74,8.7-8.22,15-15.46,15.38-5.36.26-10.71.17-16.07.22-3,0-5.91,0-8.87,0Z"/></g></g></svg>